<mxfile host="app.diagrams.net" modified="2023-11-20T03:39:29.894Z" agent="Mozilla/5.0 (Macintosh; Intel Mac OS X 10_15_7) AppleWebKit/537.36 (KHTML, like Gecko) Chrome/119.0.0.0 Safari/537.36" etag="He6Lw3qhS-xOC1pluRua" version="22.1.3" type="github">
  <diagram name="Page-1" id="2YBvvXClWsGukQMizWep">
    <mxGraphModel dx="1026" dy="599" grid="1" gridSize="10" guides="1" tooltips="1" connect="1" arrows="1" fold="1" page="1" pageScale="1" pageWidth="850" pageHeight="1100" math="0" shadow="0">
      <root>
        <mxCell id="0" />
        <mxCell id="1" parent="0" />
        <mxCell id="aM9ryv3xv72pqoxQDRHE-5" value="developerstudionodeweb" style="shape=umlLifeline;perimeter=lifelinePerimeter;whiteSpace=wrap;html=1;container=0;dropTarget=0;collapsible=0;recursiveResize=0;outlineConnect=0;portConstraint=eastwest;newEdgeStyle={&quot;edgeStyle&quot;:&quot;elbowEdgeStyle&quot;,&quot;elbow&quot;:&quot;vertical&quot;,&quot;curved&quot;:0,&quot;rounded&quot;:0};" parent="1" vertex="1">
          <mxGeometry x="250" y="40" width="160" height="520" as="geometry" />
        </mxCell>
        <mxCell id="aM9ryv3xv72pqoxQDRHE-6" value="" style="html=1;points=[];perimeter=orthogonalPerimeter;outlineConnect=0;targetShapes=umlLifeline;portConstraint=eastwest;newEdgeStyle={&quot;edgeStyle&quot;:&quot;elbowEdgeStyle&quot;,&quot;elbow&quot;:&quot;vertical&quot;,&quot;curved&quot;:0,&quot;rounded&quot;:0};" parent="aM9ryv3xv72pqoxQDRHE-5" vertex="1">
          <mxGeometry x="75" y="80" width="10" height="410" as="geometry" />
        </mxCell>
        <mxCell id="1AXqAchsUV1G7Mw6tp32-11" value="" style="html=1;points=[[0,0,0,0,5],[0,1,0,0,-5],[1,0,0,0,5],[1,1,0,0,-5]];perimeter=orthogonalPerimeter;outlineConnect=0;targetShapes=umlLifeline;portConstraint=eastwest;newEdgeStyle={&quot;curved&quot;:0,&quot;rounded&quot;:0};" vertex="1" parent="aM9ryv3xv72pqoxQDRHE-5">
          <mxGeometry x="75" y="100" width="10" height="40" as="geometry" />
        </mxCell>
        <mxCell id="1AXqAchsUV1G7Mw6tp32-12" value="Check url pattern" style="html=1;align=left;spacingLeft=2;endArrow=block;rounded=0;edgeStyle=orthogonalEdgeStyle;curved=0;rounded=0;" edge="1" target="1AXqAchsUV1G7Mw6tp32-11" parent="aM9ryv3xv72pqoxQDRHE-5">
          <mxGeometry relative="1" as="geometry">
            <mxPoint x="80" y="80" as="sourcePoint" />
            <Array as="points">
              <mxPoint x="110" y="110" />
            </Array>
          </mxGeometry>
        </mxCell>
        <mxCell id="aM9ryv3xv72pqoxQDRHE-7" value="View" style="html=1;verticalAlign=bottom;endArrow=block;edgeStyle=elbowEdgeStyle;elbow=vertical;curved=0;rounded=0;" parent="1" target="aM9ryv3xv72pqoxQDRHE-6" edge="1">
          <mxGeometry relative="1" as="geometry">
            <mxPoint x="95" y="120" as="sourcePoint" />
            <Array as="points">
              <mxPoint x="180" y="120" />
            </Array>
          </mxGeometry>
        </mxCell>
        <mxCell id="1AXqAchsUV1G7Mw6tp32-1" value="API/SDK" style="shape=umlLifeline;perimeter=lifelinePerimeter;whiteSpace=wrap;html=1;container=0;dropTarget=0;collapsible=0;recursiveResize=0;outlineConnect=0;portConstraint=eastwest;newEdgeStyle={&quot;edgeStyle&quot;:&quot;elbowEdgeStyle&quot;,&quot;elbow&quot;:&quot;vertical&quot;,&quot;curved&quot;:0,&quot;rounded&quot;:0};" vertex="1" parent="1">
          <mxGeometry x="470" y="40" width="160" height="520" as="geometry" />
        </mxCell>
        <mxCell id="1AXqAchsUV1G7Mw6tp32-2" value="" style="html=1;points=[];perimeter=orthogonalPerimeter;outlineConnect=0;targetShapes=umlLifeline;portConstraint=eastwest;newEdgeStyle={&quot;edgeStyle&quot;:&quot;elbowEdgeStyle&quot;,&quot;elbow&quot;:&quot;vertical&quot;,&quot;curved&quot;:0,&quot;rounded&quot;:0};" vertex="1" parent="1AXqAchsUV1G7Mw6tp32-1">
          <mxGeometry x="75" y="80" width="10" height="410" as="geometry" />
        </mxCell>
        <mxCell id="1AXqAchsUV1G7Mw6tp32-24" value="" style="html=1;points=[[0,0,0,0,5],[0,1,0,0,-5],[1,0,0,0,5],[1,1,0,0,-5]];perimeter=orthogonalPerimeter;outlineConnect=0;targetShapes=umlLifeline;portConstraint=eastwest;newEdgeStyle={&quot;curved&quot;:0,&quot;rounded&quot;:0};" vertex="1" parent="1AXqAchsUV1G7Mw6tp32-1">
          <mxGeometry x="85" y="270" width="10" height="40" as="geometry" />
        </mxCell>
        <mxCell id="1AXqAchsUV1G7Mw6tp32-25" value="Render by self templates" style="html=1;align=left;spacingLeft=2;endArrow=block;rounded=0;edgeStyle=orthogonalEdgeStyle;curved=0;rounded=0;" edge="1" target="1AXqAchsUV1G7Mw6tp32-24" parent="1AXqAchsUV1G7Mw6tp32-1">
          <mxGeometry relative="1" as="geometry">
            <mxPoint x="90" y="250" as="sourcePoint" />
            <Array as="points">
              <mxPoint x="120" y="280" />
            </Array>
          </mxGeometry>
        </mxCell>
        <mxCell id="1AXqAchsUV1G7Mw6tp32-3" value="Dev Docs" style="shape=umlLifeline;perimeter=lifelinePerimeter;whiteSpace=wrap;html=1;container=0;dropTarget=0;collapsible=0;recursiveResize=0;outlineConnect=0;portConstraint=eastwest;newEdgeStyle={&quot;edgeStyle&quot;:&quot;elbowEdgeStyle&quot;,&quot;elbow&quot;:&quot;vertical&quot;,&quot;curved&quot;:0,&quot;rounded&quot;:0};" vertex="1" parent="1">
          <mxGeometry x="670" y="40" width="160" height="570" as="geometry" />
        </mxCell>
        <mxCell id="1AXqAchsUV1G7Mw6tp32-4" value="" style="html=1;points=[];perimeter=orthogonalPerimeter;outlineConnect=0;targetShapes=umlLifeline;portConstraint=eastwest;newEdgeStyle={&quot;edgeStyle&quot;:&quot;elbowEdgeStyle&quot;,&quot;elbow&quot;:&quot;vertical&quot;,&quot;curved&quot;:0,&quot;rounded&quot;:0};" vertex="1" parent="1AXqAchsUV1G7Mw6tp32-3">
          <mxGeometry x="75" y="80" width="10" height="420" as="geometry" />
        </mxCell>
        <mxCell id="1AXqAchsUV1G7Mw6tp32-33" value="" style="html=1;points=[[0,0,0,0,5],[0,1,0,0,-5],[1,0,0,0,5],[1,1,0,0,-5]];perimeter=orthogonalPerimeter;outlineConnect=0;targetShapes=umlLifeline;portConstraint=eastwest;newEdgeStyle={&quot;curved&quot;:0,&quot;rounded&quot;:0};" vertex="1" parent="1AXqAchsUV1G7Mw6tp32-3">
          <mxGeometry x="85" y="430" width="10" height="40" as="geometry" />
        </mxCell>
        <mxCell id="1AXqAchsUV1G7Mw6tp32-34" value="Render by self templates" style="html=1;align=left;spacingLeft=2;endArrow=block;rounded=0;edgeStyle=orthogonalEdgeStyle;curved=0;rounded=0;" edge="1" target="1AXqAchsUV1G7Mw6tp32-33" parent="1AXqAchsUV1G7Mw6tp32-3">
          <mxGeometry relative="1" as="geometry">
            <mxPoint x="90" y="410" as="sourcePoint" />
            <Array as="points">
              <mxPoint x="120" y="440" />
            </Array>
          </mxGeometry>
        </mxCell>
        <mxCell id="1AXqAchsUV1G7Mw6tp32-5" value="Load API&amp;amp;SDK MF component (/api/xxx)" style="html=1;verticalAlign=bottom;endArrow=block;edgeStyle=elbowEdgeStyle;elbow=horizontal;curved=0;rounded=0;" edge="1" parent="1">
          <mxGeometry relative="1" as="geometry">
            <mxPoint x="330" y="200" as="sourcePoint" />
            <Array as="points">
              <mxPoint x="415" y="200" />
            </Array>
            <mxPoint x="550" y="200" as="targetPoint" />
          </mxGeometry>
        </mxCell>
        <mxCell id="1AXqAchsUV1G7Mw6tp32-6" value="Load Dev Docs MF component (/docs/xxx)" style="html=1;verticalAlign=bottom;endArrow=block;edgeStyle=elbowEdgeStyle;elbow=vertical;curved=0;rounded=0;" edge="1" parent="1">
          <mxGeometry x="0.0021" relative="1" as="geometry">
            <mxPoint x="329.5" y="350" as="sourcePoint" />
            <Array as="points">
              <mxPoint x="660" y="350" />
              <mxPoint x="415" y="290" />
            </Array>
            <mxPoint x="745" y="350" as="targetPoint" />
            <mxPoint as="offset" />
          </mxGeometry>
        </mxCell>
        <mxCell id="1AXqAchsUV1G7Mw6tp32-13" value="User" style="shape=umlActor;verticalLabelPosition=bottom;verticalAlign=top;html=1;" vertex="1" parent="1">
          <mxGeometry x="60" y="90" width="30" height="60" as="geometry" />
        </mxCell>
        <mxCell id="1AXqAchsUV1G7Mw6tp32-17" value="ECM" style="shape=umlLifeline;perimeter=lifelinePerimeter;whiteSpace=wrap;html=1;container=0;dropTarget=0;collapsible=0;recursiveResize=0;outlineConnect=0;portConstraint=eastwest;newEdgeStyle={&quot;edgeStyle&quot;:&quot;elbowEdgeStyle&quot;,&quot;elbow&quot;:&quot;vertical&quot;,&quot;curved&quot;:0,&quot;rounded&quot;:0};" vertex="1" parent="1">
          <mxGeometry x="880" y="40" width="160" height="520" as="geometry" />
        </mxCell>
        <mxCell id="1AXqAchsUV1G7Mw6tp32-18" value="" style="html=1;points=[];perimeter=orthogonalPerimeter;outlineConnect=0;targetShapes=umlLifeline;portConstraint=eastwest;newEdgeStyle={&quot;edgeStyle&quot;:&quot;elbowEdgeStyle&quot;,&quot;elbow&quot;:&quot;vertical&quot;,&quot;curved&quot;:0,&quot;rounded&quot;:0};" vertex="1" parent="1AXqAchsUV1G7Mw6tp32-17">
          <mxGeometry x="75" y="80" width="10" height="420" as="geometry" />
        </mxCell>
        <mxCell id="1AXqAchsUV1G7Mw6tp32-20" value="" style="endArrow=classic;html=1;rounded=0;" edge="1" parent="1">
          <mxGeometry width="50" height="50" relative="1" as="geometry">
            <mxPoint x="547.75" y="225" as="sourcePoint" />
            <mxPoint x="952.25" y="225" as="targetPoint" />
          </mxGeometry>
        </mxCell>
        <mxCell id="1AXqAchsUV1G7Mw6tp32-21" value="Get ECM content for API/SDK" style="edgeLabel;html=1;align=center;verticalAlign=middle;resizable=0;points=[];" vertex="1" connectable="0" parent="1AXqAchsUV1G7Mw6tp32-20">
          <mxGeometry x="0.4487" y="-1" relative="1" as="geometry">
            <mxPoint x="-78" y="4" as="offset" />
          </mxGeometry>
        </mxCell>
        <mxCell id="1AXqAchsUV1G7Mw6tp32-22" value="" style="endArrow=classic;html=1;rounded=0;dashed=1;dashPattern=8 8;" edge="1" parent="1">
          <mxGeometry width="50" height="50" relative="1" as="geometry">
            <mxPoint x="952.25" y="270" as="sourcePoint" />
            <mxPoint x="547.75" y="270" as="targetPoint" />
          </mxGeometry>
        </mxCell>
        <mxCell id="1AXqAchsUV1G7Mw6tp32-23" value="Content" style="edgeLabel;html=1;align=center;verticalAlign=middle;resizable=0;points=[];" vertex="1" connectable="0" parent="1AXqAchsUV1G7Mw6tp32-22">
          <mxGeometry x="0.7664" y="-2" relative="1" as="geometry">
            <mxPoint x="195" y="2" as="offset" />
          </mxGeometry>
        </mxCell>
        <mxCell id="1AXqAchsUV1G7Mw6tp32-26" value="" style="endArrow=classic;html=1;rounded=0;" edge="1" parent="1">
          <mxGeometry width="50" height="50" relative="1" as="geometry">
            <mxPoint x="750" y="380" as="sourcePoint" />
            <mxPoint x="962.25" y="380" as="targetPoint" />
          </mxGeometry>
        </mxCell>
        <mxCell id="1AXqAchsUV1G7Mw6tp32-27" value="Get ECM content for Docs" style="edgeLabel;html=1;align=center;verticalAlign=middle;resizable=0;points=[];" vertex="1" connectable="0" parent="1AXqAchsUV1G7Mw6tp32-26">
          <mxGeometry x="0.4487" y="-1" relative="1" as="geometry">
            <mxPoint x="-46" y="-1" as="offset" />
          </mxGeometry>
        </mxCell>
        <mxCell id="1AXqAchsUV1G7Mw6tp32-28" value="" style="endArrow=classic;html=1;rounded=0;dashed=1;dashPattern=8 8;" edge="1" parent="1" target="1AXqAchsUV1G7Mw6tp32-3">
          <mxGeometry width="50" height="50" relative="1" as="geometry">
            <mxPoint x="962.25" y="410" as="sourcePoint" />
            <mxPoint x="557.75" y="410" as="targetPoint" />
          </mxGeometry>
        </mxCell>
        <mxCell id="1AXqAchsUV1G7Mw6tp32-29" value="Content" style="edgeLabel;html=1;align=center;verticalAlign=middle;resizable=0;points=[];" vertex="1" connectable="0" parent="1AXqAchsUV1G7Mw6tp32-28">
          <mxGeometry x="0.7664" y="-2" relative="1" as="geometry">
            <mxPoint x="86" y="2" as="offset" />
          </mxGeometry>
        </mxCell>
      </root>
    </mxGraphModel>
  </diagram>
</mxfile>
